<svg width="25" height="25" viewBox="0 0 25 25" fill="none" xmlns="http://www.w3.org/2000/svg">
<path d="M24.9325 23.75C22.8675 20.18 19.5575 17.7425 15.7225 16.8638C17.5448 16.1171 19.0514 14.7609 19.9847 13.0268C20.9181 11.2927 21.2203 9.28833 20.8399 7.3561C20.4594 5.42387 19.4198 3.6837 17.8987 2.4329C16.3776 1.1821 14.4694 0.498291 12.5 0.498291C10.5307 0.498291 8.62245 1.1821 7.10134 2.4329C5.58023 3.6837 4.54063 5.42387 4.16016 7.3561C3.77969 9.28833 4.08195 11.2927 5.01531 13.0268C5.94867 14.7609 7.4552 16.1171 9.27752 16.8638C5.44752 17.7388 2.13252 20.18 0.0675179 23.75C0.00774124 23.8643 -0.0055721 23.9972 0.0303592 24.1211C0.0662904 24.2449 0.148687 24.3501 0.260338 24.4146C0.371988 24.4792 0.504257 24.4981 0.629515 24.4674C0.754774 24.4367 0.863333 24.3588 0.932518 24.25C3.37502 20.0238 7.70252 17.5 12.5 17.5C17.2975 17.5 21.625 20.0238 24.0675 24.25C24.1114 24.3259 24.1744 24.389 24.2503 24.4329C24.3262 24.4768 24.4123 24.4999 24.5 24.5C24.5879 24.5003 24.6742 24.477 24.75 24.4325C24.8646 24.3661 24.9482 24.257 24.9824 24.129C25.0167 24.001 24.9987 23.8647 24.9325 23.75ZM5.00002 9C5.00002 7.51664 5.43989 6.0666 6.264 4.83323C7.08811 3.59986 8.25945 2.63856 9.62989 2.07091C11.0003 1.50325 12.5083 1.35472 13.9632 1.64411C15.4181 1.9335 16.7544 2.64781 17.8033 3.6967C18.8522 4.7456 19.5665 6.08197 19.8559 7.53683C20.1453 8.99168 19.9968 10.4997 19.4291 11.8701C18.8615 13.2406 17.9002 14.4119 16.6668 15.236C15.4334 16.0601 13.9834 16.5 12.5 16.5C10.5116 16.4977 8.6053 15.7068 7.19927 14.3007C5.79325 12.8947 5.00233 10.9884 5.00002 9Z" fill="#757575"/>
</svg>
