<svg width="12" height="22" viewBox="0 0 12 22" fill="none" xmlns="http://www.w3.org/2000/svg">
<path d="M11.53 20.47C11.6037 20.5387 11.6628 20.6215 11.7038 20.7135C11.7448 20.8055 11.7668 20.9048 11.7686 21.0055C11.7704 21.1062 11.7519 21.2062 11.7141 21.2996C11.6764 21.393 11.6203 21.4778 11.549 21.5491C11.4778 21.6203 11.393 21.6764 11.2996 21.7142C11.2062 21.7519 11.1062 21.7704 11.0055 21.7686C10.9048 21.7668 10.8055 21.7448 10.7135 21.7038C10.6215 21.6628 10.5387 21.6037 10.47 21.53L0.470012 11.53C0.329561 11.3894 0.250671 11.1988 0.250671 11C0.250671 10.8013 0.329561 10.6107 0.470012 10.47L10.47 0.470029C10.6122 0.337549 10.8002 0.265426 10.9945 0.268855C11.1888 0.272283 11.3742 0.350995 11.5116 0.488408C11.649 0.625821 11.7278 0.811206 11.7312 1.00551C11.7346 1.19981 11.6625 1.38785 11.53 1.53003L2.06126 11L11.53 20.47Z" fill="black"/>
</svg>
