<svg width="28" height="24" viewBox="0 0 28 24" fill="none" xmlns="http://www.w3.org/2000/svg">
<path d="M20.25 0.5C17.57 0.5 15.26 1.77375 14 3.88375C12.74 1.77375 10.43 0.5 7.75 0.5C5.82789 0.502316 3.98517 1.2669 2.62603 2.62603C1.2669 3.98517 0.502316 5.82789 0.5 7.75C0.5 11.3237 2.75 15.0587 7.175 18.8487C9.21813 20.5874 11.4242 22.1249 13.7625 23.44C13.8355 23.4794 13.9171 23.5 14 23.5C14.0829 23.5 14.1645 23.4794 14.2375 23.44C16.5758 22.1249 18.7819 20.5874 20.825 18.8487C25.25 15.0587 27.5 11.3237 27.5 7.75C27.4977 5.82789 26.7331 3.98517 25.374 2.62603C24.0148 1.2669 22.1721 0.502316 20.25 0.5ZM14 22.4275C12.25 21.4325 1.5 15.0087 1.5 7.75C1.50198 6.09301 2.1611 4.50445 3.33277 3.33277C4.50445 2.1611 6.09301 1.50198 7.75 1.5C10.3888 1.5 12.6063 2.91375 13.5375 5.18875C13.5752 5.28046 13.6393 5.35889 13.7216 5.41409C13.804 5.46929 13.9009 5.49877 14 5.49877C14.0991 5.49877 14.196 5.46929 14.2784 5.41409C14.3607 5.35889 14.4248 5.28046 14.4625 5.18875C15.3937 2.91375 17.6112 1.5 20.25 1.5C21.907 1.50198 23.4956 2.1611 24.6672 3.33277C25.8389 4.50445 26.498 6.09301 26.5 7.75C26.5 15 15.75 21.4325 14 22.4275Z" fill="#757575"/>
</svg>
