<svg width="29" height="22" viewBox="0 0 29 22" fill="none" xmlns="http://www.w3.org/2000/svg">
<path d="M20 21C20 21.1326 19.9473 21.2598 19.8535 21.3536C19.7598 21.4473 19.6326 21.5 19.5 21.5H1.49998C1.36737 21.5 1.24019 21.4473 1.14642 21.3536C1.05265 21.2598 0.999976 21.1326 0.999976 21C0.999976 20.8674 1.05265 20.7402 1.14642 20.6464C1.24019 20.5527 1.36737 20.5 1.49998 20.5H19.5C19.6326 20.5 19.7598 20.5527 19.8535 20.6464C19.9473 20.7402 20 20.8674 20 21ZM28.9912 5.55125C28.9782 5.62095 28.9505 5.68709 28.91 5.74528C28.8695 5.80347 28.8171 5.85237 28.7562 5.88875L10.33 16.8888C9.63976 17.2927 8.8547 17.5062 8.05498 17.5075C6.91337 17.5062 5.81547 17.0684 4.98623 16.2838L0.466226 11.8613C0.287168 11.6909 0.15296 11.479 0.0755319 11.2444C-0.00189637 11.0097 -0.0201466 10.7595 0.0224035 10.5161C0.0649536 10.2727 0.166986 10.0435 0.319431 9.84903C0.471876 9.65454 0.670011 9.50072 0.896226 9.40125L1.27998 9.21375C1.39697 9.15697 1.53148 9.148 1.65498 9.18875L5.40498 10.455L8.68748 8.475L5.48873 5.375C5.30347 5.20586 5.1636 4.99297 5.0819 4.75579C5.00019 4.51862 4.97928 4.26475 5.02106 4.0174C5.06285 3.77005 5.166 3.53713 5.32107 3.33996C5.47615 3.14279 5.67819 2.98765 5.90873 2.88875L5.92873 2.88125L6.82248 2.5425C6.93533 2.50033 7.05962 2.50033 7.17248 2.5425L14.1387 5.1L20.79 1.125C21.7145 0.575123 22.806 0.376347 23.865 0.565012C24.924 0.753676 25.8797 1.31718 26.5575 2.1525L28.8937 5.1525C28.9373 5.20828 28.9685 5.27267 28.9853 5.34141C29.0021 5.41015 29.0041 5.48167 28.9912 5.55125ZM27.7575 5.32L25.7762 2.78C25.2487 2.13362 24.5066 1.69817 23.6851 1.55294C22.8635 1.40772 22.0171 1.56237 21.3 1.98875L14.4475 6.08C14.3833 6.11838 14.3114 6.1419 14.237 6.14882C14.1626 6.15574 14.0876 6.14589 14.0175 6.12L6.99998 3.53875L6.29248 3.80625C6.21696 3.84082 6.15124 3.89366 6.10126 3.96C6.05128 4.02633 6.01861 4.10407 6.0062 4.1862C5.9938 4.26832 6.00204 4.35225 6.0302 4.43038C6.05836 4.50852 6.10554 4.57842 6.16748 4.63375C6.17174 4.63864 6.17633 4.64324 6.18123 4.6475L9.84998 8.20875C9.90475 8.26204 9.94658 8.32718 9.97225 8.39916C9.99792 8.47114 10.0067 8.54805 9.99805 8.62398C9.98936 8.6999 9.96338 8.77283 9.92211 8.83714C9.88084 8.90146 9.82537 8.95546 9.75998 8.995L5.73248 11.43C5.67025 11.4677 5.60054 11.4914 5.52821 11.4994C5.45588 11.5074 5.38269 11.4995 5.31373 11.4763L1.53498 10.2013L1.32623 10.3038L1.30373 10.315C1.22748 10.3478 1.16059 10.399 1.10909 10.4641C1.05758 10.5291 1.02308 10.606 1.0087 10.6877C0.994309 10.7694 1.00049 10.8535 1.02668 10.9322C1.05287 11.0109 1.09825 11.0819 1.15873 11.1388L5.67748 15.5625C6.22521 16.0778 6.92521 16.4016 7.67252 16.4854C8.41983 16.5693 9.17419 16.4086 9.82248 16.0275L27.7575 5.32Z" fill="#757575"/>
</svg>
