<svg width="17" height="14" viewBox="0 0 17 14" fill="none" xmlns="http://www.w3.org/2000/svg">
<path d="M16.625 13.3125H13.8125V10.8125H16C16.0477 10.8126 16.0949 10.8017 16.1378 10.7808C16.1806 10.7598 16.2182 10.7293 16.2474 10.6916C16.2767 10.6539 16.2969 10.6099 16.3066 10.5632C16.3162 10.5164 16.3151 10.4681 16.3031 10.4219L13.8031 0.421863C13.7862 0.354292 13.7472 0.294317 13.6922 0.251463C13.6373 0.208609 13.5697 0.185333 13.5 0.185333C13.4303 0.185333 13.3627 0.208609 13.3078 0.251463C13.2528 0.294317 13.2138 0.354292 13.1969 0.421863L10.6969 10.4219C10.6849 10.4681 10.6838 10.5164 10.6934 10.5632C10.7031 10.6099 10.7233 10.6539 10.7526 10.6916C10.7818 10.7293 10.8194 10.7598 10.8622 10.7808C10.9051 10.8017 10.9523 10.8126 11 10.8125H13.1875V13.3125H7.5625V11.4375H8.5C8.58288 11.4375 8.66237 11.4046 8.72097 11.346C8.77958 11.2874 8.8125 11.2079 8.8125 11.125C8.8125 11.0421 8.77958 10.9626 8.72097 10.904C8.66237 10.8454 8.58288 10.8125 8.5 10.8125H7.5625V8.93749H8.5C8.58288 8.93749 8.66237 8.90456 8.72097 8.84596C8.77958 8.78735 8.8125 8.70787 8.8125 8.62499C8.8125 8.54211 8.77958 8.46262 8.72097 8.40402C8.66237 8.34541 8.58288 8.31249 8.5 8.31249H1.625C1.54212 8.31249 1.46263 8.34541 1.40403 8.40402C1.34542 8.46262 1.3125 8.54211 1.3125 8.62499C1.3125 8.70787 1.34542 8.78735 1.40403 8.84596C1.46263 8.90456 1.54212 8.93749 1.625 8.93749H2.5625V10.8125H1.625C1.54212 10.8125 1.46263 10.8454 1.40403 10.904C1.34542 10.9626 1.3125 11.0421 1.3125 11.125C1.3125 11.2079 1.34542 11.2874 1.40403 11.346C1.46263 11.4046 1.54212 11.4375 1.625 11.4375H2.5625V13.3125H0.375C0.29212 13.3125 0.212634 13.3454 0.154029 13.404C0.0954241 13.4626 0.0625 13.5421 0.0625 13.625C0.0625 13.7079 0.0954241 13.7874 0.154029 13.846C0.212634 13.9046 0.29212 13.9375 0.375 13.9375H16.625C16.7079 13.9375 16.7874 13.9046 16.846 13.846C16.9046 13.7874 16.9375 13.7079 16.9375 13.625C16.9375 13.5421 16.9046 13.4626 16.846 13.404C16.7874 13.3454 16.7079 13.3125 16.625 13.3125ZM13.5 1.78827L15.6 10.1875H11.4L13.5 1.78827ZM3.1875 8.93749H6.9375V10.8125H3.1875V8.93749ZM3.1875 11.4375H6.9375V13.3125H3.1875V11.4375ZM7.5625 5.18749C7.93334 5.18749 8.29585 5.07752 8.60419 4.87149C8.91254 4.66547 9.15286 4.37263 9.29477 4.03002C9.43669 3.68741 9.47382 3.31041 9.40147 2.94669C9.32913 2.58298 9.15055 2.24889 8.88833 1.98666C8.6261 1.72444 8.29201 1.54586 7.92829 1.47352C7.56458 1.40117 7.18758 1.4383 6.84497 1.58021C6.50236 1.72213 6.20952 1.96245 6.00349 2.27079C5.79747 2.57914 5.6875 2.94165 5.6875 3.31249C5.6875 3.80977 5.88504 4.28668 6.23667 4.63831C6.58831 4.98994 7.06522 5.18749 7.5625 5.18749ZM7.5625 2.06249C7.80973 2.06249 8.0514 2.1358 8.25696 2.27315C8.46252 2.4105 8.62274 2.60573 8.71735 2.83413C8.81196 3.06254 8.83671 3.31387 8.78848 3.55635C8.74025 3.79883 8.6212 4.02156 8.44638 4.19637C8.27157 4.37119 8.04884 4.49024 7.80636 4.53847C7.56389 4.5867 7.31255 4.56195 7.08415 4.46734C6.85574 4.37273 6.66051 4.21251 6.52316 4.00695C6.38581 3.80139 6.3125 3.55971 6.3125 3.31249C6.3125 2.98097 6.4442 2.66302 6.67862 2.4286C6.91304 2.19418 7.23098 2.06249 7.5625 2.06249Z" fill="black"/>
</svg>
