<svg width="26" height="26" viewBox="0 0 26 26" fill="none" xmlns="http://www.w3.org/2000/svg">
<path d="M13 0.5C10.5277 0.5 8.11099 1.23311 6.05538 2.60663C3.99976 3.98015 2.39761 5.93238 1.45151 8.21646C0.505416 10.5005 0.257874 13.0139 0.74019 15.4386C1.2225 17.8634 2.41301 20.0907 4.16117 21.8388C5.90933 23.587 8.13661 24.7775 10.5614 25.2598C12.9861 25.7421 15.4995 25.4946 17.7835 24.5485C20.0676 23.6024 22.0199 22.0002 23.3934 19.9446C24.7669 17.889 25.5 15.4723 25.5 13C25.4964 9.68591 24.1782 6.5086 21.8348 4.16518C19.4914 1.82177 16.3141 0.503639 13 0.5ZM24.5 13C24.5016 14.6741 24.1355 16.328 23.4275 17.845L17.35 14.1063C17.1716 13.9968 16.9724 13.9258 16.765 13.8975L13.9125 13.5138C13.5914 13.4705 13.2649 13.5323 12.9819 13.6901C12.6989 13.8478 12.4746 14.0929 12.3425 14.3888L12.2925 14.4988H10.8925C10.7985 14.4987 10.7065 14.4722 10.6269 14.4222C10.5473 14.3723 10.4834 14.3009 10.4425 14.2162L9.96751 13.2337C9.86862 13.0282 9.7239 12.848 9.54447 12.7072C9.36503 12.5663 9.15568 12.4685 8.93251 12.4213L7.25876 12.0625L8.58376 9.75C8.6277 9.67388 8.69094 9.61069 8.76709 9.5668C8.84324 9.52291 8.92961 9.49987 9.01751 9.5H11.1063C11.3599 9.4998 11.6093 9.43529 11.8313 9.3125L13.3613 8.4675C13.4625 8.41208 13.5569 8.34495 13.6425 8.2675L17.0063 5.225C17.258 4.99737 17.4251 4.69109 17.4803 4.3562C17.5355 4.02131 17.4754 3.67761 17.31 3.38125L16.5775 2.07C18.8798 2.82703 20.8848 4.29083 22.3072 6.25316C23.7296 8.21549 24.4969 10.5764 24.5 13ZM15.2363 1.71875L16.4363 3.86875C16.4915 3.96758 16.5116 4.08224 16.4932 4.19396C16.4748 4.30568 16.419 4.40785 16.335 4.48375L12.9713 7.52625C12.9424 7.55154 12.911 7.57374 12.8775 7.5925L11.3475 8.4375C11.2737 8.47836 11.1907 8.49986 11.1063 8.5H9.01751C8.75383 8.49961 8.4947 8.56874 8.26625 8.70041C8.0378 8.83208 7.8481 9.02165 7.71626 9.25L6.23376 11.8375C6.15585 11.8175 6.08392 11.779 6.02408 11.7252C5.96423 11.6715 5.91824 11.6041 5.89001 11.5288L4.45376 7.7C4.4075 7.57876 4.41019 7.44429 4.46126 7.325L5.87501 3.97625C7.90171 2.36898 10.4133 1.49608 13 1.5C13.7508 1.50017 14.4997 1.57343 15.2363 1.71875ZM1.50001 13C1.49641 10.4006 2.37815 7.87756 4.00001 5.84625L3.53626 6.94C3.38706 7.2935 3.37901 7.69074 3.51376 8.05L4.95001 11.8837C5.03761 12.1197 5.1835 12.3296 5.37409 12.494C5.56468 12.6583 5.79376 12.7718 6.04001 12.8237L8.71876 13.4C8.7931 13.416 8.86282 13.4487 8.92261 13.4958C8.98239 13.5428 9.03067 13.6028 9.06376 13.6712L9.53876 14.6537C9.66239 14.9067 9.85436 15.1201 10.0929 15.2696C10.3315 15.4192 10.6072 15.499 10.8888 15.5H11.8438L10.625 18.2313C10.5041 18.5024 10.4664 18.8034 10.5167 19.096C10.567 19.3886 10.703 19.6597 10.9075 19.875L13.3675 22.4075C13.4209 22.4649 13.46 22.5341 13.4817 22.6095C13.5035 22.6848 13.5071 22.7642 13.4925 22.8412L13.17 24.5H13C9.95103 24.4967 7.02788 23.284 4.87193 21.1281C2.71598 18.9721 1.50331 16.049 1.50001 13ZM14.2 24.4375L14.4725 23.0263C14.5173 22.7936 14.5066 22.5537 14.4415 22.3259C14.3763 22.0981 14.2585 21.8888 14.0975 21.715L11.6375 19.1825C11.5711 19.1105 11.5273 19.0206 11.5115 18.924C11.4957 18.8273 11.5087 18.7281 11.5488 18.6388L13.2613 14.7962C13.3053 14.6979 13.38 14.6164 13.4741 14.5639C13.5683 14.5114 13.6769 14.4907 13.7838 14.505L16.6363 14.8888C16.7053 14.8986 16.7717 14.9224 16.8313 14.9587L22.97 18.7337C22.0624 20.3094 20.7945 21.6477 19.2701 22.6391C17.7458 23.6305 16.0083 24.2468 14.2 24.4375Z" fill="#757575"/>
</svg>
