<svg width="18" height="13" viewBox="0 0 18 13" fill="none" xmlns="http://www.w3.org/2000/svg">
<path d="M9.62495 11.9375C9.62495 12.0611 9.58829 12.1819 9.51962 12.2847C9.45094 12.3875 9.35333 12.4676 9.23912 12.5149C9.12492 12.5622 8.99925 12.5746 8.87801 12.5505C8.75678 12.5264 8.64541 12.4668 8.558 12.3794C8.4706 12.292 8.41107 12.1807 8.38696 12.0594C8.36284 11.9382 8.37522 11.8125 8.42252 11.6983C8.46983 11.5841 8.54993 11.4865 8.65271 11.4178C8.7555 11.3491 8.87633 11.3125 8.99995 11.3125C9.16571 11.3125 9.32468 11.3783 9.44189 11.4955C9.5591 11.6128 9.62495 11.7717 9.62495 11.9375ZM17.3234 3.03905C14.9766 1.11422 12.0352 0.0622559 8.99995 0.0622559C5.96473 0.0622559 3.02333 1.11422 0.676509 3.03905C0.644606 3.06505 0.618151 3.09709 0.598663 3.13333C0.579176 3.16958 0.567038 3.20931 0.562948 3.25026C0.558859 3.29121 0.562897 3.33256 0.574831 3.37195C0.586766 3.41133 0.606361 3.44797 0.632493 3.47976C0.658625 3.51155 0.690778 3.53786 0.727107 3.55719C0.763436 3.57653 0.803226 3.58849 0.844191 3.5924C0.885157 3.59632 0.926492 3.5921 0.965823 3.57999C1.00515 3.56789 1.04171 3.54813 1.07338 3.52187C3.30837 1.68896 6.10949 0.687248 8.99995 0.687248C11.8904 0.687248 14.6915 1.68896 16.9265 3.52187C16.9906 3.57407 17.0727 3.59877 17.155 3.59055C17.2372 3.58234 17.3128 3.54188 17.3653 3.47804C17.4178 3.4142 17.4428 3.33216 17.435 3.24989C17.4271 3.16762 17.387 3.09181 17.3234 3.03905ZM14.8187 5.83671C13.1623 4.52493 11.1113 3.81117 8.99838 3.81117C6.88546 3.81117 4.83449 4.52493 3.17807 5.83671C3.14591 5.86236 3.11911 5.89409 3.09921 5.9301C3.07931 5.9661 3.0667 6.00567 3.06209 6.04655C3.05748 6.08743 3.06098 6.12882 3.07236 6.16835C3.08375 6.20788 3.10281 6.24478 3.12846 6.27694C3.15411 6.30911 3.18584 6.3359 3.22185 6.3558C3.25785 6.3757 3.29743 6.38832 3.3383 6.39292C3.37918 6.39753 3.42057 6.39404 3.4601 6.38265C3.49963 6.37126 3.53653 6.3522 3.5687 6.32655C5.11425 5.10352 7.02746 4.43811 8.99838 4.43811C10.9693 4.43811 12.8825 5.10352 14.4281 6.32655C14.4602 6.3522 14.4971 6.37126 14.5367 6.38265C14.5762 6.39404 14.6176 6.39753 14.6585 6.39292C14.6993 6.38832 14.7389 6.3757 14.7749 6.3558C14.8109 6.3359 14.8427 6.30911 14.8683 6.27694C14.894 6.24478 14.913 6.20788 14.9244 6.16835C14.9358 6.12882 14.9393 6.08743 14.9347 6.04655C14.9301 6.00567 14.9175 5.9661 14.8976 5.9301C14.8777 5.89409 14.8509 5.86236 14.8187 5.83671ZM12.3085 8.63827C11.3471 7.93899 10.1888 7.56232 8.99995 7.56232C7.81109 7.56232 6.6528 7.93899 5.69135 8.63827C5.65577 8.66139 5.62528 8.6915 5.60172 8.72679C5.57816 8.76207 5.56203 8.80179 5.55431 8.84351C5.5466 8.88523 5.54746 8.92808 5.55685 8.96946C5.56623 9.01083 5.58395 9.04986 5.60891 9.08417C5.63387 9.11848 5.66556 9.14735 5.70203 9.16901C5.73851 9.19067 5.77902 9.20468 5.82109 9.21018C5.86316 9.21568 5.90591 9.21256 5.94673 9.201C5.98756 9.18945 6.0256 9.1697 6.05854 9.14296C6.91357 8.52198 7.94321 8.18753 8.99995 8.18753C10.0567 8.18753 11.0863 8.52198 11.9414 9.14296C12.0082 9.19162 12.0917 9.21179 12.1734 9.19905C12.2551 9.18631 12.3284 9.1417 12.3773 9.07499C12.4015 9.04181 12.4189 9.00418 12.4285 8.96427C12.4381 8.92436 12.4398 8.88294 12.4334 8.84239C12.427 8.80183 12.4127 8.76293 12.3913 8.7279C12.3699 8.69288 12.3417 8.66242 12.3085 8.63827Z" fill="black"/>
</svg>
