<svg width="33" height="32" viewBox="0 0 33 32" fill="none" xmlns="http://www.w3.org/2000/svg">
<path d="M28.9325 26.75C26.8675 23.18 23.5575 20.7425 19.7225 19.8638C21.5448 19.1171 23.0514 17.7609 23.9847 16.0268C24.9181 14.2927 25.2203 12.2883 24.8399 10.3561C24.4594 8.42387 23.4198 6.6837 21.8987 5.4329C20.3776 4.1821 18.4694 3.49829 16.5 3.49829C14.5307 3.49829 12.6225 4.1821 11.1013 5.4329C9.58023 6.6837 8.54063 8.42387 8.16016 10.3561C7.77969 12.2883 8.08195 14.2927 9.01531 16.0268C9.94867 17.7609 11.4552 19.1171 13.2775 19.8638C9.44752 20.7388 6.13252 23.18 4.06752 26.75C4.00774 26.8643 3.99443 26.9972 4.03036 27.1211C4.06629 27.2449 4.14869 27.3501 4.26034 27.4146C4.37199 27.4792 4.50426 27.4981 4.62952 27.4674C4.75477 27.4367 4.86333 27.3588 4.93252 27.25C7.37502 23.0238 11.7025 20.5 16.5 20.5C21.2975 20.5 25.625 23.0238 28.0675 27.25C28.1114 27.3259 28.1744 27.389 28.2503 27.4329C28.3262 27.4768 28.4123 27.4999 28.5 27.5C28.5879 27.5003 28.6742 27.477 28.75 27.4325C28.8646 27.3661 28.9482 27.257 28.9824 27.129C29.0167 27.001 28.9987 26.8647 28.9325 26.75ZM9.00002 12C9.00002 10.5166 9.43989 9.0666 10.264 7.83323C11.0881 6.59986 12.2594 5.63856 13.6299 5.07091C15.0003 4.50325 16.5083 4.35472 17.9632 4.64411C19.4181 4.9335 20.7544 5.64781 21.8033 6.6967C22.8522 7.7456 23.5665 9.08197 23.8559 10.5368C24.1453 11.9917 23.9968 13.4997 23.4291 14.8701C22.8615 16.2406 21.9002 17.4119 20.6668 18.236C19.4334 19.0601 17.9834 19.5 16.5 19.5C14.5116 19.4977 12.6053 18.7068 11.1993 17.3007C9.79325 15.8947 9.00233 13.9884 9.00002 12Z" fill="#757575"/>
</svg>
