<svg width="21" height="20" viewBox="0 0 21 20" fill="none" xmlns="http://www.w3.org/2000/svg">
<path d="M18.625 15.3125H15.8125V12.8125H18C18.0477 12.8126 18.0949 12.8017 18.1378 12.7808C18.1806 12.7598 18.2182 12.7293 18.2474 12.6916C18.2767 12.6539 18.2969 12.61 18.3066 12.5632C18.3162 12.5164 18.3151 12.4681 18.3031 12.4219L15.8031 2.42188C15.7862 2.35431 15.7472 2.29433 15.6922 2.25148C15.6373 2.20862 15.5697 2.18535 15.5 2.18535C15.4303 2.18535 15.3627 2.20862 15.3078 2.25148C15.2528 2.29433 15.2138 2.35431 15.1969 2.42188L12.6969 12.4219C12.6849 12.4681 12.6838 12.5164 12.6934 12.5632C12.7031 12.61 12.7233 12.6539 12.7526 12.6916C12.7818 12.7293 12.8194 12.7598 12.8622 12.7808C12.9051 12.8017 12.9523 12.8126 13 12.8125H15.1875V15.3125H9.5625V13.4375H10.5C10.5829 13.4375 10.6624 13.4046 10.721 13.346C10.7796 13.2874 10.8125 13.2079 10.8125 13.125C10.8125 13.0421 10.7796 12.9626 10.721 12.904C10.6624 12.8454 10.5829 12.8125 10.5 12.8125H9.5625V10.9375H10.5C10.5829 10.9375 10.6624 10.9046 10.721 10.846C10.7796 10.7874 10.8125 10.7079 10.8125 10.625C10.8125 10.5421 10.7796 10.4626 10.721 10.404C10.6624 10.3454 10.5829 10.3125 10.5 10.3125H3.625C3.54212 10.3125 3.46263 10.3454 3.40403 10.404C3.34542 10.4626 3.3125 10.5421 3.3125 10.625C3.3125 10.7079 3.34542 10.7874 3.40403 10.846C3.46263 10.9046 3.54212 10.9375 3.625 10.9375H4.5625V12.8125H3.625C3.54212 12.8125 3.46263 12.8454 3.40403 12.904C3.34542 12.9626 3.3125 13.0421 3.3125 13.125C3.3125 13.2079 3.34542 13.2874 3.40403 13.346C3.46263 13.4046 3.54212 13.4375 3.625 13.4375H4.5625V15.3125H2.375C2.29212 15.3125 2.21263 15.3454 2.15403 15.404C2.09542 15.4626 2.0625 15.5421 2.0625 15.625C2.0625 15.7079 2.09542 15.7874 2.15403 15.846C2.21263 15.9046 2.29212 15.9375 2.375 15.9375H18.625C18.7079 15.9375 18.7874 15.9046 18.846 15.846C18.9046 15.7874 18.9375 15.7079 18.9375 15.625C18.9375 15.5421 18.9046 15.4626 18.846 15.404C18.7874 15.3454 18.7079 15.3125 18.625 15.3125ZM15.5 3.78828L17.6 12.1875H13.4L15.5 3.78828ZM5.1875 10.9375H8.9375V12.8125H5.1875V10.9375ZM5.1875 13.4375H8.9375V15.3125H5.1875V13.4375ZM9.5625 7.1875C9.93334 7.1875 10.2959 7.07754 10.6042 6.87151C10.9125 6.66548 11.1529 6.37265 11.2948 6.03003C11.4367 5.68742 11.4738 5.31042 11.4015 4.94671C11.3291 4.58299 11.1505 4.2489 10.8883 3.98668C10.6261 3.72445 10.292 3.54588 9.92829 3.47353C9.56458 3.40118 9.18758 3.43831 8.84497 3.58023C8.50236 3.72214 8.20952 3.96247 8.00349 4.27081C7.79747 4.57915 7.6875 4.94166 7.6875 5.3125C7.6875 5.80978 7.88504 6.2867 8.23667 6.63833C8.58831 6.98996 9.06522 7.1875 9.5625 7.1875ZM9.5625 4.0625C9.80973 4.0625 10.0514 4.13581 10.257 4.27317C10.4625 4.41052 10.6227 4.60574 10.7174 4.83415C10.812 5.06256 10.8367 5.31389 10.7885 5.55637C10.7403 5.79884 10.6212 6.02157 10.4464 6.19639C10.2716 6.3712 10.0488 6.49025 9.80636 6.53849C9.56389 6.58672 9.31255 6.56196 9.08415 6.46735C8.85574 6.37274 8.66051 6.21253 8.52316 6.00697C8.38581 5.8014 8.3125 5.55973 8.3125 5.3125C8.3125 4.98098 8.4442 4.66304 8.67862 4.42862C8.91304 4.1942 9.23098 4.0625 9.5625 4.0625Z" fill="black"/>
</svg>
