<svg width="20" height="14" viewBox="0 0 20 14" fill="none" xmlns="http://www.w3.org/2000/svg">
<path d="M17.1875 12.875C17.1875 12.9579 17.1546 13.0374 17.096 13.096C17.0374 13.1546 16.9579 13.1875 16.875 13.1875H5.62499C5.54211 13.1875 5.46263 13.1546 5.40402 13.096C5.34542 13.0374 5.31249 12.9579 5.31249 12.875C5.31249 12.7921 5.34542 12.7126 5.40402 12.654C5.46263 12.5954 5.54211 12.5625 5.62499 12.5625H16.875C16.9579 12.5625 17.0374 12.5954 17.096 12.654C17.1546 12.7126 17.1875 12.7921 17.1875 12.875ZM19.0625 6.625V8.5C19.0625 8.58288 19.0296 8.66237 18.971 8.72097C18.9124 8.77958 18.8329 8.8125 18.75 8.8125H4.77031C4.16478 8.8151 3.57478 8.62105 3.089 8.25954C2.60323 7.89802 2.24794 7.38858 2.07656 6.80781L0.978119 3.14453C0.936122 3.00462 0.9274 2.85684 0.952646 2.71297C0.977893 2.56909 1.03641 2.43311 1.12353 2.31586C1.21065 2.19861 1.32397 2.10334 1.45444 2.03765C1.58491 1.97196 1.72892 1.93766 1.87499 1.9375H2.49999C2.54104 1.93747 2.5817 1.94552 2.61963 1.96121C2.65757 1.97689 2.69204 1.9999 2.72109 2.02891L4.50468 3.8125H6.82499L5.98671 1.29609C5.93984 1.15528 5.92707 1.00535 5.94945 0.858632C5.97183 0.711918 6.02872 0.572612 6.11544 0.452176C6.20216 0.331739 6.31624 0.233612 6.44829 0.165867C6.58034 0.0981222 6.72658 0.0626952 6.87499 0.0625001H7.49999C7.54104 0.0624678 7.5817 0.0705238 7.61963 0.0862075C7.65757 0.101891 7.69204 0.124895 7.72109 0.153906L11.3797 3.8125H16.25C16.9959 3.8125 17.7113 4.10882 18.2387 4.63626C18.7662 5.16371 19.0625 5.87908 19.0625 6.625ZM18.4375 6.625C18.4375 6.33773 18.3809 6.05328 18.271 5.78788C18.161 5.52248 17.9999 5.28133 17.7968 5.0782C17.5937 4.87508 17.3525 4.71395 17.0871 4.60401C16.8217 4.49408 16.5373 4.4375 16.25 4.4375H11.25C11.2089 4.43753 11.1683 4.42948 11.1304 4.41379C11.0924 4.39811 11.0579 4.3751 11.0289 4.34609L7.37109 0.6875H6.87499C6.82549 0.687455 6.77668 0.699173 6.73259 0.721687C6.6885 0.744202 6.65039 0.776869 6.6214 0.816999C6.59241 0.857128 6.57337 0.903571 6.56584 0.952502C6.55832 1.00143 6.56252 1.05145 6.57812 1.09844L7.55468 4.02656C7.57025 4.07349 7.57447 4.12343 7.56699 4.1723C7.55951 4.22118 7.54053 4.26757 7.51163 4.30768C7.48273 4.3478 7.44472 4.38048 7.40073 4.40305C7.35674 4.42561 7.30803 4.43742 7.25859 4.4375H4.37499C4.29236 4.43736 4.21315 4.40449 4.15468 4.34609L2.37109 2.5625H1.87499C1.82628 2.56251 1.77824 2.57392 1.73472 2.59579C1.6912 2.61767 1.65339 2.64943 1.62432 2.68851C1.59525 2.7276 1.57572 2.77295 1.5673 2.82092C1.55887 2.8689 1.56177 2.91819 1.57577 2.96484L2.67499 6.62891C2.80833 7.08058 3.08472 7.47674 3.46259 7.75782C3.84046 8.03889 4.29937 8.18968 4.77031 8.1875H18.4375V6.625Z" fill="black"/>
</svg>
