<svg width="20" height="20" viewBox="0 0 20 20" fill="none" xmlns="http://www.w3.org/2000/svg">
<path d="M10.625 15.9375C10.625 16.0611 10.5884 16.182 10.5197 16.2847C10.451 16.3875 10.3534 16.4676 10.2392 16.5149C10.125 16.5622 9.99931 16.5746 9.87808 16.5505C9.75684 16.5264 9.64547 16.4669 9.55807 16.3794C9.47066 16.292 9.41113 16.1807 9.38702 16.0594C9.3629 15.9382 9.37528 15.8125 9.42258 15.6983C9.46989 15.5841 9.54999 15.4865 9.65278 15.4178C9.75556 15.3492 9.87639 15.3125 10 15.3125C10.1658 15.3125 10.3247 15.3784 10.4419 15.4956C10.5592 15.6128 10.625 15.7717 10.625 15.9375ZM18.3234 7.03907C15.9766 5.11424 13.0352 4.06227 10 4.06227C6.96479 4.06227 4.02339 5.11424 1.67657 7.03907C1.64467 7.06506 1.61821 7.0971 1.59872 7.13335C1.57924 7.16959 1.5671 7.20933 1.56301 7.25028C1.55892 7.29122 1.56296 7.33258 1.57489 7.37196C1.58683 7.41134 1.60642 7.44798 1.63255 7.47977C1.65869 7.51156 1.69084 7.53788 1.72717 7.55721C1.7635 7.57654 1.80329 7.58851 1.84425 7.59242C1.88522 7.59633 1.92655 7.59211 1.96588 7.58001C2.00522 7.5679 2.04177 7.54815 2.07345 7.52188C4.30843 5.68897 7.10956 4.68726 10 4.68726C12.8905 4.68726 15.6916 5.68897 17.9266 7.52188C17.9906 7.57408 18.0728 7.59878 18.155 7.59057C18.2373 7.58235 18.3129 7.5419 18.3654 7.47805C18.4179 7.41421 18.4429 7.33218 18.435 7.2499C18.4272 7.16763 18.3871 7.09182 18.3234 7.03907ZM15.8188 9.83672C14.1623 8.52495 12.1114 7.81119 9.99844 7.81119C7.88552 7.81119 5.83455 8.52495 4.17813 9.83672C4.14597 9.86237 4.11917 9.89411 4.09927 9.93011C4.07937 9.96612 4.06676 10.0057 4.06215 10.0466C4.05755 10.0874 4.06104 10.1288 4.07242 10.1684C4.08381 10.2079 4.10287 10.2448 4.12852 10.277C4.15417 10.3091 4.1859 10.3359 4.22191 10.3558C4.25791 10.3757 4.29749 10.3883 4.33837 10.3929C4.37925 10.3975 4.42063 10.3941 4.46016 10.3827C4.49969 10.3713 4.53659 10.3522 4.56876 10.3266C6.11432 9.10354 8.02752 8.43813 9.99844 8.43813C11.9694 8.43813 13.8826 9.10354 15.4281 10.3266C15.4603 10.3522 15.4972 10.3713 15.5367 10.3827C15.5763 10.3941 15.6176 10.3975 15.6585 10.3929C15.6994 10.3883 15.739 10.3757 15.775 10.3558C15.811 10.3359 15.8427 10.3091 15.8684 10.277C15.894 10.2448 15.9131 10.2079 15.9245 10.1684C15.9359 10.1288 15.9393 10.0874 15.9347 10.0466C15.9301 10.0057 15.9175 9.96612 15.8976 9.93011C15.8777 9.89411 15.8509 9.86237 15.8188 9.83672ZM13.3086 12.6383C12.3471 11.939 11.1889 11.5623 10 11.5623C8.81115 11.5623 7.65286 11.939 6.69141 12.6383C6.65584 12.6614 6.62534 12.6915 6.60178 12.7268C6.57822 12.7621 6.56209 12.8018 6.55437 12.8435C6.54666 12.8852 6.54752 12.9281 6.55691 12.9695C6.5663 13.0108 6.58401 13.0499 6.60897 13.0842C6.63393 13.1185 6.66562 13.1474 6.7021 13.169C6.73857 13.1907 6.77908 13.2047 6.82115 13.2102C6.86322 13.2157 6.90597 13.2126 6.94679 13.201C6.98762 13.1895 7.02566 13.1697 7.0586 13.143C7.91363 12.522 8.94327 12.1875 10 12.1875C11.0567 12.1875 12.0864 12.522 12.9414 13.143C13.0083 13.1916 13.0917 13.2118 13.1734 13.1991C13.2551 13.1863 13.3285 13.1417 13.3773 13.075C13.4015 13.0418 13.4189 13.0042 13.4286 12.9643C13.4382 12.9244 13.4399 12.883 13.4335 12.8424C13.4271 12.8018 13.4128 12.7629 13.3913 12.7279C13.3699 12.6929 13.3418 12.6624 13.3086 12.6383Z" fill="black"/>
</svg>
