<svg width="20" height="14" viewBox="0 0 20 14" fill="none" xmlns="http://www.w3.org/2000/svg">
<path d="M17.1876 12.875C17.1876 12.9579 17.1546 13.0374 17.096 13.096C17.0374 13.1546 16.9579 13.1875 16.8751 13.1875H5.62506C5.54217 13.1875 5.46269 13.1546 5.40408 13.096C5.34548 13.0374 5.31255 12.9579 5.31255 12.875C5.31255 12.7921 5.34548 12.7126 5.40408 12.654C5.46269 12.5954 5.54217 12.5625 5.62506 12.5625H16.8751C16.9579 12.5625 17.0374 12.5954 17.096 12.654C17.1546 12.7126 17.1876 12.7921 17.1876 12.875ZM19.0626 6.625V8.5C19.0626 8.58288 19.0296 8.66237 18.971 8.72097C18.9124 8.77958 18.8329 8.8125 18.7501 8.8125H4.77037C4.16484 8.8151 3.57484 8.62105 3.08906 8.25954C2.60329 7.89802 2.248 7.38858 2.07662 6.80781L0.97818 3.14453C0.936183 3.00462 0.927461 2.85684 0.952708 2.71297C0.977954 2.56909 1.03647 2.43311 1.12359 2.31586C1.21071 2.19861 1.32403 2.10334 1.4545 2.03765C1.58497 1.97196 1.72898 1.93766 1.87505 1.9375H2.50005C2.5411 1.93747 2.58176 1.94552 2.6197 1.96121C2.65763 1.97689 2.69211 1.9999 2.72115 2.02891L4.50474 3.8125H6.82506L5.98677 1.29609C5.9399 1.15528 5.92713 1.00535 5.94951 0.858632C5.97189 0.711918 6.02878 0.572612 6.1155 0.452176C6.20222 0.331739 6.3163 0.233612 6.44835 0.165867C6.5804 0.0981222 6.72664 0.0626952 6.87505 0.0625001H7.50005C7.54111 0.0624678 7.58176 0.0705238 7.6197 0.0862075C7.65763 0.101891 7.69211 0.124895 7.72115 0.153906L11.3797 3.8125H16.2501C16.996 3.8125 17.7113 4.10882 18.2388 4.63626C18.7662 5.16371 19.0626 5.87908 19.0626 6.625ZM18.4376 6.625C18.4376 6.33773 18.381 6.05328 18.271 5.78788C18.1611 5.52248 18 5.28133 17.7969 5.0782C17.5937 4.87508 17.3526 4.71395 17.0872 4.60401C16.8218 4.49408 16.5373 4.4375 16.2501 4.4375H11.2501C11.209 4.43753 11.1684 4.42948 11.1304 4.41379C11.0925 4.39811 11.058 4.3751 11.029 4.34609L7.37115 0.6875H6.87505C6.82555 0.687455 6.77674 0.699173 6.73265 0.721687C6.68856 0.744202 6.65045 0.776869 6.62146 0.816999C6.59247 0.857128 6.57343 0.903571 6.5659 0.952502C6.55838 1.00143 6.56259 1.05145 6.57818 1.09844L7.55474 4.02656C7.57032 4.07349 7.57453 4.12343 7.56705 4.1723C7.55957 4.22118 7.54059 4.26757 7.51169 4.30768C7.48279 4.3478 7.44478 4.38048 7.40079 4.40305C7.3568 4.42561 7.30809 4.43742 7.25865 4.4375H4.37506C4.29242 4.43736 4.21321 4.40449 4.15474 4.34609L2.37115 2.5625H1.87505C1.82634 2.56251 1.77831 2.57392 1.73478 2.59579C1.69126 2.61767 1.65345 2.64943 1.62438 2.68851C1.59531 2.7276 1.57579 2.77295 1.56736 2.82092C1.55893 2.8689 1.56183 2.91819 1.57584 2.96484L2.67505 6.62891C2.8084 7.08058 3.08478 7.47674 3.46265 7.75782C3.84052 8.03889 4.29943 8.18968 4.77037 8.1875H18.4376V6.625Z" fill="black"/>
</svg>
