<svg width="21" height="20" viewBox="0 0 21 20" fill="none" xmlns="http://www.w3.org/2000/svg">
<path d="M19.4844 8.54063L16.6719 5.41563C16.6423 5.38286 16.6061 5.35673 16.5657 5.33895C16.5253 5.32118 16.4816 5.31216 16.4375 5.3125H10.8125V2.5C10.8125 2.41712 10.7796 2.33763 10.721 2.27903C10.6624 2.22042 10.5829 2.1875 10.5 2.1875C10.4171 2.1875 10.3376 2.22042 10.279 2.27903C10.2204 2.33763 10.1875 2.41712 10.1875 2.5V5.3125H3.625C3.37636 5.3125 3.1379 5.41127 2.96209 5.58709C2.78627 5.7629 2.6875 6.00136 2.6875 6.25V11.25C2.6875 11.4986 2.78627 11.7371 2.96209 11.9129C3.1379 12.0887 3.37636 12.1875 3.625 12.1875H10.1875V17.5C10.1875 17.5829 10.2204 17.6624 10.279 17.721C10.3376 17.7796 10.4171 17.8125 10.5 17.8125C10.5829 17.8125 10.6624 17.7796 10.721 17.721C10.7796 17.6624 10.8125 17.5829 10.8125 17.5V12.1875H16.4375C16.4816 12.1878 16.5253 12.1788 16.5657 12.161C16.6061 12.1433 16.6423 12.1171 16.6719 12.0844L19.4844 8.95937C19.5362 8.90195 19.5649 8.82735 19.5649 8.75C19.5649 8.67265 19.5362 8.59805 19.4844 8.54063ZM16.2984 11.5625H3.625C3.54212 11.5625 3.46263 11.5296 3.40403 11.471C3.34542 11.4124 3.3125 11.3329 3.3125 11.25V6.25C3.3125 6.16712 3.34542 6.08763 3.40403 6.02903C3.46263 5.97042 3.54212 5.9375 3.625 5.9375H16.2984L18.8297 8.75L16.2984 11.5625Z" fill="black"/>
<path d="M7.464 7.128V9.576C7.464 9.672 7.472 9.744 7.488 9.792C7.504 9.84 7.53467 9.872 7.58 9.888C7.628 9.904 7.69733 9.91467 7.788 9.92V10C7.732 9.99467 7.65867 9.992 7.568 9.992C7.47733 9.98933 7.38 9.988 7.276 9.988C7.16933 9.988 7.064 9.98933 6.96 9.992C6.856 9.992 6.76933 9.99467 6.7 10V9.92C6.812 9.91467 6.89733 9.904 6.956 9.888C7.01467 9.872 7.05333 9.84 7.072 9.792C7.09333 9.744 7.104 9.672 7.104 9.576V7.768C7.104 7.67467 7.09067 7.60667 7.064 7.564C7.03733 7.51867 6.98933 7.48933 6.92 7.476C6.85333 7.46267 6.76 7.456 6.64 7.456V7.372C6.85333 7.34 7.02267 7.30267 7.148 7.26C7.276 7.21467 7.38133 7.17067 7.464 7.128ZM10.8018 7.884C10.8951 7.884 10.9604 7.90667 10.9978 7.952C11.0378 7.99733 11.0578 8.048 11.0578 8.104C11.0578 8.16267 11.0391 8.21333 11.0018 8.256C10.9644 8.296 10.9124 8.316 10.8458 8.316C10.7978 8.316 10.7564 8.30533 10.7218 8.284C10.6871 8.26267 10.6604 8.23333 10.6418 8.196C10.6231 8.156 10.6138 8.11067 10.6138 8.06C10.6138 8.05467 10.6138 8.04933 10.6138 8.044C10.6138 8.03867 10.6138 8.03467 10.6138 8.032C10.5844 8.04533 10.5578 8.06933 10.5338 8.104C10.5124 8.13867 10.4898 8.18533 10.4658 8.244C10.4418 8.30267 10.4138 8.37467 10.3818 8.46C10.3551 8.532 10.3244 8.60133 10.2898 8.668C10.2551 8.73467 10.2071 8.79067 10.1458 8.836C10.0844 8.88133 10.0004 8.91067 9.89378 8.924L9.92978 8.896C10.0898 8.89067 10.2298 8.908 10.3498 8.948C10.4724 8.988 10.5684 9.06267 10.6378 9.172C10.6831 9.24133 10.7204 9.32667 10.7498 9.428C10.7818 9.52933 10.8151 9.61867 10.8498 9.696C10.8791 9.76267 10.9124 9.81467 10.9498 9.852C10.9898 9.88667 11.0511 9.908 11.1338 9.916V10C11.0911 10.008 11.0484 10.0147 11.0058 10.02C10.9631 10.0253 10.9231 10.028 10.8858 10.028C10.7658 10.028 10.6778 10 10.6218 9.944C10.5658 9.88533 10.5231 9.80667 10.4938 9.708C10.4804 9.66267 10.4644 9.608 10.4458 9.544C10.4271 9.47733 10.4044 9.41067 10.3778 9.344C10.3511 9.27467 10.3191 9.21467 10.2818 9.164C10.2231 9.08133 10.1471 9.028 10.0538 9.004C9.96045 8.97733 9.83911 8.96667 9.68978 8.972V8.904C9.83645 8.896 9.94978 8.872 10.0298 8.832C10.1098 8.78933 10.1711 8.73067 10.2138 8.656C10.2564 8.58133 10.2951 8.49333 10.3298 8.392C10.3564 8.31733 10.3858 8.24133 10.4178 8.164C10.4498 8.084 10.4951 8.01733 10.5538 7.964C10.6151 7.91067 10.6978 7.884 10.8018 7.884ZM9.96978 7.944V8.028C9.87378 8.028 9.80578 8.048 9.76578 8.088C9.72578 8.128 9.70578 8.204 9.70578 8.316V9.628C9.70578 9.74 9.72578 9.816 9.76578 9.856C9.80578 9.896 9.87378 9.916 9.96978 9.916V10C9.92711 9.99733 9.86311 9.99467 9.77778 9.992C9.69245 9.98667 9.60578 9.984 9.51778 9.984C9.42978 9.984 9.33911 9.98667 9.24578 9.992C9.15511 9.99467 9.08711 9.99733 9.04178 10V9.916C9.15111 9.916 9.22845 9.896 9.27378 9.856C9.32178 9.816 9.34578 9.74 9.34578 9.628V8.316C9.34578 8.204 9.32178 8.128 9.27378 8.088C9.22845 8.048 9.15111 8.028 9.04178 8.028V7.944C9.08711 7.94667 9.15511 7.95067 9.24578 7.956C9.33911 7.95867 9.42978 7.96 9.51778 7.96C9.60578 7.96 9.69245 7.95867 9.77778 7.956C9.86311 7.95067 9.92711 7.94667 9.96978 7.944ZM13.9428 7.94V8.02C13.8522 8.02267 13.7828 8.03333 13.7348 8.052C13.6895 8.068 13.6588 8.1 13.6428 8.148C13.6268 8.19333 13.6188 8.26533 13.6188 8.364V9.576C13.6188 9.672 13.6268 9.744 13.6428 9.792C13.6588 9.84 13.6895 9.872 13.7348 9.888C13.7828 9.904 13.8522 9.91467 13.9428 9.92V10C13.8815 9.99467 13.8068 9.992 13.7188 9.992C13.6308 9.98933 13.5402 9.988 13.4468 9.988C13.3428 9.988 13.2455 9.98933 13.1548 9.992C13.0642 9.992 12.9908 9.99467 12.9348 10V9.92C13.0255 9.91467 13.0935 9.904 13.1388 9.888C13.1868 9.872 13.2188 9.84 13.2348 9.792C13.2508 9.744 13.2588 9.672 13.2588 9.576V8.172L12.5148 10.02H12.4508L11.7388 8.196V9.576C11.7388 9.672 11.7468 9.744 11.7628 9.792C11.7788 9.84 11.8095 9.872 11.8548 9.888C11.9028 9.904 11.9722 9.91467 12.0628 9.92V10C12.0148 9.99467 11.9588 9.992 11.8948 9.992C11.8335 9.98933 11.7682 9.988 11.6988 9.988C11.6322 9.988 11.5642 9.98933 11.4948 9.992C11.4282 9.992 11.3722 9.99467 11.3268 10V9.92C11.4175 9.91467 11.4855 9.904 11.5308 9.888C11.5788 9.872 11.6108 9.84 11.6268 9.792C11.6428 9.744 11.6508 9.672 11.6508 9.576V8.364C11.6508 8.26533 11.6428 8.19333 11.6268 8.148C11.6108 8.1 11.5788 8.068 11.5308 8.052C11.4855 8.03333 11.4175 8.02267 11.3268 8.02V7.94C11.3722 7.94267 11.4282 7.94533 11.4948 7.948C11.5642 7.95067 11.6322 7.952 11.6988 7.952C11.8162 7.952 11.9188 7.948 12.0068 7.94L12.6388 9.616L12.5908 9.624L13.2588 7.952C13.2882 7.952 13.3175 7.952 13.3468 7.952C13.3788 7.952 13.4122 7.952 13.4468 7.952C13.5402 7.952 13.6295 7.95067 13.7148 7.948C13.8028 7.94533 13.8788 7.94267 13.9428 7.94Z" fill="black"/>
</svg>
