<svg width="17" height="16" viewBox="0 0 17 16" fill="none" xmlns="http://www.w3.org/2000/svg">
<path d="M5.375 9.35859C5.45788 9.35859 5.53737 9.32567 5.59597 9.26707C5.65458 9.20846 5.6875 9.12897 5.6875 9.04609V7.6875H11.3125V9.19453C11.3125 9.27741 11.3454 9.3569 11.404 9.4155C11.4626 9.47411 11.5421 9.50703 11.625 9.50703C11.7079 9.50703 11.7874 9.47411 11.846 9.4155C11.9046 9.3569 11.9375 9.27741 11.9375 9.19453V0.5C11.9375 0.41712 11.9046 0.337634 11.846 0.279029C11.7874 0.220424 11.7079 0.1875 11.625 0.1875C11.5421 0.1875 11.4626 0.220424 11.404 0.279029C11.3454 0.337634 11.3125 0.41712 11.3125 0.5V2.0625H5.6875V0.5C5.6875 0.41712 5.65458 0.337634 5.59597 0.279029C5.53737 0.220424 5.45788 0.1875 5.375 0.1875C5.29212 0.1875 5.21263 0.220424 5.15403 0.279029C5.09542 0.337634 5.0625 0.41712 5.0625 0.5V9.04609C5.0625 9.12897 5.09542 9.20846 5.15403 9.26707C5.21263 9.32567 5.29212 9.35859 5.375 9.35859ZM5.6875 7.0625V5.1875H11.3125V7.0625H5.6875ZM11.3125 2.6875V4.5625H5.6875V2.6875H11.3125ZM0.6875 11.125C0.6875 11.0421 0.720424 10.9626 0.779029 10.904C0.837634 10.8454 0.91712 10.8125 1 10.8125C2.03203 10.8125 2.57188 11.1727 3.04844 11.4898C3.50938 11.7969 3.90781 12.0625 4.75 12.0625C5.59219 12.0625 5.99062 11.7969 6.45156 11.4898C6.92734 11.1727 7.46719 10.8125 8.49922 10.8125C9.53125 10.8125 10.0719 11.1727 10.5477 11.4898C11.0086 11.7969 11.407 12.0625 12.25 12.0625C13.093 12.0625 13.4906 11.7969 13.9516 11.4898C14.4281 11.1727 14.9672 10.8125 16 10.8125C16.0829 10.8125 16.1624 10.8454 16.221 10.904C16.2796 10.9626 16.3125 11.0421 16.3125 11.125C16.3125 11.2079 16.2796 11.2874 16.221 11.346C16.1624 11.4046 16.0829 11.4375 16 11.4375C15.157 11.4375 14.7594 11.7031 14.2984 12.0102C13.8219 12.3273 13.2828 12.6875 12.25 12.6875C11.2172 12.6875 10.6773 12.3273 10.2016 12.0102C9.74062 11.7031 9.34219 11.4375 8.49922 11.4375C7.65625 11.4375 7.25859 11.7031 6.79766 12.0102C6.32188 12.3273 5.78203 12.6875 4.75 12.6875C3.71797 12.6875 3.17812 12.3273 2.70156 12.0102C2.24062 11.7031 1.84297 11.4375 1 11.4375C0.91712 11.4375 0.837634 11.4046 0.779029 11.346C0.720424 11.2874 0.6875 11.2079 0.6875 11.125ZM16.3125 14.25C16.3125 14.3329 16.2796 14.4124 16.221 14.471C16.1624 14.5296 16.0829 14.5625 16 14.5625C15.157 14.5625 14.7594 14.8281 14.2984 15.1352C13.8219 15.4523 13.2828 15.8125 12.25 15.8125C11.2172 15.8125 10.6773 15.4523 10.2016 15.1352C9.74062 14.8281 9.34219 14.5625 8.49922 14.5625C7.65625 14.5625 7.25859 14.8281 6.79766 15.1352C6.32188 15.4523 5.78203 15.8125 4.75 15.8125C3.71797 15.8125 3.17812 15.4523 2.70156 15.1352C2.24062 14.8281 1.84297 14.5625 1 14.5625C0.91712 14.5625 0.837634 14.5296 0.779029 14.471C0.720424 14.4124 0.6875 14.3329 0.6875 14.25C0.6875 14.1671 0.720424 14.0876 0.779029 14.029C0.837634 13.9704 0.91712 13.9375 1 13.9375C2.03203 13.9375 2.57188 14.2977 3.04844 14.6148C3.50938 14.9219 3.90781 15.1875 4.75 15.1875C5.59219 15.1875 5.99062 14.9219 6.45156 14.6148C6.92734 14.2977 7.46719 13.9375 8.49922 13.9375C9.53125 13.9375 10.0719 14.2977 10.5477 14.6148C11.0086 14.9219 11.407 15.1875 12.25 15.1875C13.093 15.1875 13.4906 14.9219 13.9516 14.6148C14.4281 14.2977 14.9672 13.9375 16 13.9375C16.0829 13.9375 16.1624 13.9704 16.221 14.029C16.2796 14.0876 16.3125 14.1671 16.3125 14.25Z" fill="black"/>
</svg>
