<svg width="40" height="40" viewBox="0 0 40 40" fill="none" xmlns="http://www.w3.org/2000/svg">
<path d="M13.3344 38.3363L10.4773 30.3363C10.2447 29.6851 10.7275 29 11.419 29H28.581C29.2725 29 29.7553 29.6851 29.5227 30.3363L26.6656 38.3363C26.5235 38.7343 26.1465 39 25.7239 39H14.2761C13.8535 39 13.4765 38.7343 13.3344 38.3363Z" fill="#2C4E87"/>
<circle cx="19.5" cy="13.5" r="13.5" fill="#2C4E87"/>
<path d="M13 30L11 20" stroke="#2C4E87"/>
<path d="M27 30L29 20" stroke="#2C4E87"/>
<path d="M11.354 12.752C11.338 12.924 11.326 13.09 11.318 13.25C11.314 13.41 11.312 13.532 11.312 13.616C11.312 13.708 11.314 13.794 11.318 13.874C11.322 13.954 11.326 14.024 11.33 14.084H11.192C11.148 13.784 11.088 13.548 11.012 13.376C10.936 13.2 10.834 13.076 10.706 13.004C10.578 12.928 10.408 12.89 10.196 12.89H9.938C9.818 12.89 9.726 12.9 9.662 12.92C9.598 12.94 9.554 12.982 9.53 13.046C9.51 13.11 9.5 13.208 9.5 13.34V16.34C9.5 16.492 9.516 16.606 9.548 16.682C9.58 16.758 9.642 16.808 9.734 16.832C9.826 16.856 9.958 16.87 10.13 16.874V17C10.014 16.992 9.864 16.988 9.68 16.988C9.496 16.984 9.306 16.982 9.11 16.982C8.942 16.982 8.78 16.984 8.624 16.988C8.468 16.988 8.332 16.992 8.216 17V16.88C8.348 16.872 8.446 16.856 8.51 16.832C8.578 16.808 8.622 16.76 8.642 16.688C8.666 16.616 8.678 16.508 8.678 16.364V13.388C8.678 13.24 8.666 13.132 8.642 13.064C8.622 12.992 8.578 12.944 8.51 12.92C8.446 12.892 8.348 12.876 8.216 12.872V12.752C8.376 12.756 8.544 12.76 8.72 12.764C8.9 12.764 9.076 12.766 9.248 12.77C9.424 12.77 9.586 12.77 9.734 12.77C9.886 12.77 10.008 12.77 10.1 12.77C10.284 12.77 10.492 12.77 10.724 12.77C10.96 12.766 11.17 12.76 11.354 12.752ZM10.448 14.84C10.448 14.84 10.448 14.86 10.448 14.9C10.448 14.94 10.448 14.96 10.448 14.96H9.32C9.32 14.96 9.32 14.94 9.32 14.9C9.32 14.86 9.32 14.84 9.32 14.84H10.448ZM10.586 14.048C10.57 14.276 10.562 14.45 10.562 14.57C10.566 14.69 10.568 14.8 10.568 14.9C10.568 15 10.57 15.11 10.574 15.23C10.578 15.35 10.588 15.524 10.604 15.752H10.466C10.45 15.616 10.42 15.488 10.376 15.368C10.332 15.244 10.264 15.146 10.172 15.074C10.084 14.998 9.956 14.96 9.788 14.96V14.84C9.912 14.84 10.014 14.814 10.094 14.762C10.174 14.71 10.236 14.644 10.28 14.564C10.328 14.48 10.364 14.394 10.388 14.306C10.416 14.214 10.436 14.128 10.448 14.048H10.586ZM12.4098 12.368C12.5538 12.368 12.6718 12.408 12.7638 12.488C12.8558 12.568 12.9018 12.674 12.9018 12.806C12.9018 12.938 12.8558 13.044 12.7638 13.124C12.6718 13.204 12.5538 13.244 12.4098 13.244C12.2658 13.244 12.1478 13.204 12.0558 13.124C11.9638 13.044 11.9178 12.938 11.9178 12.806C11.9178 12.674 11.9638 12.568 12.0558 12.488C12.1478 12.408 12.2658 12.368 12.4098 12.368ZM12.8298 13.832V16.442C12.8298 16.61 12.8598 16.724 12.9198 16.784C12.9838 16.844 13.0898 16.874 13.2378 16.874V17C13.1658 16.996 13.0558 16.992 12.9078 16.988C12.7598 16.98 12.6098 16.976 12.4578 16.976C12.3098 16.976 12.1598 16.98 12.0078 16.988C11.8558 16.992 11.7418 16.996 11.6658 17V16.874C11.8138 16.874 11.9178 16.844 11.9778 16.784C12.0418 16.724 12.0738 16.61 12.0738 16.442V14.558C12.0738 14.374 12.0438 14.24 11.9838 14.156C11.9278 14.068 11.8218 14.024 11.6658 14.024V13.898C11.7938 13.91 11.9178 13.916 12.0378 13.916C12.1858 13.916 12.3258 13.91 12.4578 13.898C12.5938 13.882 12.7178 13.86 12.8298 13.832ZM15.5035 13.814C15.6275 13.814 15.7295 13.84 15.8095 13.892C15.8935 13.944 15.9555 14.01 15.9955 14.09C16.0355 14.17 16.0555 14.254 16.0555 14.342C16.0555 14.474 16.0155 14.584 15.9355 14.672C15.8595 14.76 15.7575 14.804 15.6295 14.804C15.5095 14.804 15.4115 14.772 15.3355 14.708C15.2595 14.644 15.2215 14.556 15.2215 14.444C15.2215 14.344 15.2455 14.26 15.2935 14.192C15.3455 14.124 15.4035 14.07 15.4675 14.03C15.4235 14.006 15.3735 13.998 15.3175 14.006C15.2215 14.014 15.1335 14.048 15.0535 14.108C14.9735 14.168 14.9055 14.242 14.8495 14.33C14.7935 14.418 14.7495 14.512 14.7175 14.612C14.6895 14.712 14.6755 14.808 14.6755 14.9V16.382C14.6755 16.578 14.7255 16.71 14.8255 16.778C14.9255 16.842 15.0715 16.874 15.2635 16.874V17C15.1715 16.996 15.0375 16.992 14.8615 16.988C14.6895 16.98 14.5095 16.976 14.3215 16.976C14.1655 16.976 14.0095 16.98 13.8535 16.988C13.7015 16.992 13.5875 16.996 13.5115 17V16.874C13.6595 16.874 13.7635 16.844 13.8235 16.784C13.8875 16.724 13.9195 16.61 13.9195 16.442V14.552C13.9195 14.372 13.8895 14.24 13.8295 14.156C13.7735 14.068 13.6675 14.024 13.5115 14.024V13.898C13.6395 13.91 13.7635 13.916 13.8835 13.916C14.0315 13.916 14.1715 13.91 14.3035 13.898C14.4395 13.882 14.5635 13.86 14.6755 13.832V14.456C14.7235 14.344 14.7855 14.24 14.8615 14.144C14.9415 14.048 15.0355 13.97 15.1435 13.91C15.2555 13.846 15.3755 13.814 15.5035 13.814ZM17.6836 13.814C18.0356 13.814 18.3116 13.92 18.5116 14.132C18.7116 14.344 18.8116 14.682 18.8116 15.146H16.7896L16.7836 15.032H18.1156C18.1236 14.836 18.1116 14.656 18.0796 14.492C18.0476 14.324 17.9956 14.19 17.9236 14.09C17.8556 13.99 17.7656 13.94 17.6536 13.94C17.5016 13.94 17.3696 14.03 17.2576 14.21C17.1456 14.386 17.0756 14.676 17.0476 15.08L17.0716 15.116C17.0636 15.168 17.0576 15.224 17.0536 15.284C17.0536 15.344 17.0536 15.404 17.0536 15.464C17.0536 15.74 17.0936 15.968 17.1736 16.148C17.2536 16.328 17.3576 16.46 17.4856 16.544C17.6136 16.628 17.7456 16.67 17.8816 16.67C17.9736 16.67 18.0676 16.656 18.1636 16.628C18.2596 16.6 18.3536 16.548 18.4456 16.472C18.5376 16.396 18.6216 16.288 18.6976 16.148L18.8116 16.196C18.7676 16.336 18.6936 16.476 18.5896 16.616C18.4896 16.752 18.3596 16.864 18.1996 16.952C18.0396 17.04 17.8516 17.084 17.6356 17.084C17.3636 17.084 17.1236 17.024 16.9156 16.904C16.7076 16.784 16.5456 16.606 16.4296 16.37C16.3136 16.13 16.2556 15.838 16.2556 15.494C16.2556 15.13 16.3156 14.824 16.4356 14.576C16.5596 14.328 16.7296 14.14 16.9456 14.012C17.1616 13.88 17.4076 13.814 17.6836 13.814ZM22.7248 12.752C22.7088 12.936 22.6968 13.116 22.6888 13.292C22.6848 13.464 22.6828 13.596 22.6828 13.688C22.6828 13.78 22.6848 13.866 22.6888 13.946C22.6928 14.026 22.6968 14.096 22.7008 14.156H22.5628C22.5068 13.836 22.4388 13.586 22.3587 13.406C22.2788 13.222 22.1728 13.09 22.0408 13.01C21.9128 12.93 21.7428 12.89 21.5308 12.89H21.3388V16.31C21.3388 16.474 21.3528 16.596 21.3808 16.676C21.4128 16.756 21.4748 16.81 21.5668 16.838C21.6588 16.862 21.7928 16.876 21.9688 16.88V17C21.8488 16.992 21.6928 16.988 21.5008 16.988C21.3088 16.984 21.1128 16.982 20.9128 16.982C20.7048 16.982 20.5088 16.984 20.3248 16.988C20.1448 16.988 19.9988 16.992 19.8868 17V16.88C20.0588 16.876 20.1908 16.862 20.2828 16.838C20.3748 16.81 20.4368 16.756 20.4688 16.676C20.5008 16.596 20.5168 16.474 20.5168 16.31V12.89H20.3188C20.1108 12.89 19.9408 12.93 19.8088 13.01C19.6768 13.09 19.5708 13.222 19.4908 13.406C19.4108 13.586 19.3448 13.836 19.2928 14.156H19.1548C19.1628 14.096 19.1667 14.026 19.1667 13.946C19.1708 13.866 19.1728 13.78 19.1728 13.688C19.1728 13.596 19.1688 13.464 19.1608 13.292C19.1568 13.116 19.1468 12.936 19.1308 12.752C19.3068 12.756 19.5008 12.76 19.7128 12.764C19.9248 12.768 20.1368 12.77 20.3488 12.77C20.5608 12.77 20.7548 12.77 20.9308 12.77C21.1028 12.77 21.2948 12.77 21.5068 12.77C21.7188 12.77 21.9308 12.768 22.1428 12.764C22.3548 12.76 22.5488 12.756 22.7248 12.752ZM25.0308 13.814C25.1548 13.814 25.2568 13.84 25.3368 13.892C25.4208 13.944 25.4828 14.01 25.5228 14.09C25.5628 14.17 25.5828 14.254 25.5828 14.342C25.5828 14.474 25.5428 14.584 25.4628 14.672C25.3868 14.76 25.2848 14.804 25.1568 14.804C25.0368 14.804 24.9388 14.772 24.8628 14.708C24.7868 14.644 24.7488 14.556 24.7488 14.444C24.7488 14.344 24.7728 14.26 24.8208 14.192C24.8728 14.124 24.9308 14.07 24.9948 14.03C24.9508 14.006 24.9008 13.998 24.8448 14.006C24.7488 14.014 24.6608 14.048 24.5808 14.108C24.5008 14.168 24.4328 14.242 24.3768 14.33C24.3208 14.418 24.2768 14.512 24.2448 14.612C24.2168 14.712 24.2028 14.808 24.2028 14.9V16.382C24.2028 16.578 24.2528 16.71 24.3528 16.778C24.4528 16.842 24.5988 16.874 24.7908 16.874V17C24.6988 16.996 24.5648 16.992 24.3888 16.988C24.2168 16.98 24.0368 16.976 23.8488 16.976C23.6928 16.976 23.5368 16.98 23.3808 16.988C23.2288 16.992 23.1148 16.996 23.0388 17V16.874C23.1868 16.874 23.2908 16.844 23.3508 16.784C23.4148 16.724 23.4468 16.61 23.4468 16.442V14.552C23.4468 14.372 23.4168 14.24 23.3568 14.156C23.3008 14.068 23.1948 14.024 23.0388 14.024V13.898C23.1668 13.91 23.2908 13.916 23.4108 13.916C23.5588 13.916 23.6988 13.91 23.8308 13.898C23.9668 13.882 24.0908 13.86 24.2028 13.832V14.456C24.2508 14.344 24.3128 14.24 24.3888 14.144C24.4688 14.048 24.5628 13.97 24.6708 13.91C24.7828 13.846 24.9028 13.814 25.0308 13.814ZM26.5367 12.368C26.6807 12.368 26.7987 12.408 26.8907 12.488C26.9827 12.568 27.0287 12.674 27.0287 12.806C27.0287 12.938 26.9827 13.044 26.8907 13.124C26.7987 13.204 26.6807 13.244 26.5367 13.244C26.3927 13.244 26.2747 13.204 26.1827 13.124C26.0907 13.044 26.0447 12.938 26.0447 12.806C26.0447 12.674 26.0907 12.568 26.1827 12.488C26.2747 12.408 26.3927 12.368 26.5367 12.368ZM26.9567 13.832V16.442C26.9567 16.61 26.9867 16.724 27.0467 16.784C27.1107 16.844 27.2167 16.874 27.3647 16.874V17C27.2927 16.996 27.1827 16.992 27.0347 16.988C26.8867 16.98 26.7367 16.976 26.5847 16.976C26.4367 16.976 26.2867 16.98 26.1347 16.988C25.9827 16.992 25.8687 16.996 25.7927 17V16.874C25.9407 16.874 26.0447 16.844 26.1047 16.784C26.1687 16.724 26.2007 16.61 26.2007 16.442V14.558C26.2007 14.374 26.1707 14.24 26.1107 14.156C26.0547 14.068 25.9487 14.024 25.7927 14.024V13.898C25.9207 13.91 26.0447 13.916 26.1647 13.916C26.3127 13.916 26.4527 13.91 26.5847 13.898C26.7207 13.882 26.8447 13.86 26.9567 13.832ZM28.7664 13.838V17.504C28.7664 17.684 28.8144 17.804 28.9104 17.864C29.0104 17.928 29.1464 17.96 29.3184 17.96V18.086C29.2224 18.082 29.0864 18.076 28.9104 18.068C28.7384 18.064 28.5544 18.062 28.3584 18.062C28.2224 18.062 28.0864 18.064 27.9504 18.068C27.8144 18.076 27.7104 18.082 27.6384 18.086V17.96C27.7744 17.96 27.8704 17.932 27.9264 17.876C27.9824 17.82 28.0104 17.716 28.0104 17.564V14.558C28.0104 14.378 27.9824 14.246 27.9264 14.162C27.8704 14.074 27.7624 14.03 27.6024 14.03V13.904C27.7304 13.916 27.8544 13.922 27.9744 13.922C28.1264 13.922 28.2684 13.916 28.4004 13.904C28.5324 13.888 28.6544 13.866 28.7664 13.838ZM29.7084 13.814C29.9164 13.814 30.1024 13.872 30.2664 13.988C30.4304 14.1 30.5584 14.266 30.6504 14.486C30.7464 14.706 30.7944 14.982 30.7944 15.314C30.7944 15.578 30.7644 15.82 30.7044 16.04C30.6444 16.256 30.5544 16.442 30.4344 16.598C30.3184 16.754 30.1744 16.874 30.0024 16.958C29.8304 17.042 29.6344 17.084 29.4144 17.084C29.2464 17.084 29.0964 17.052 28.9644 16.988C28.8324 16.924 28.7364 16.838 28.6764 16.73L28.7364 16.646C28.7844 16.73 28.8504 16.798 28.9344 16.85C29.0184 16.902 29.1184 16.928 29.2344 16.928C29.4264 16.928 29.5784 16.866 29.6904 16.742C29.8024 16.614 29.8804 16.436 29.9244 16.208C29.9724 15.98 29.9964 15.716 29.9964 15.416C29.9964 15.084 29.9744 14.818 29.9304 14.618C29.8864 14.418 29.8204 14.274 29.7324 14.186C29.6444 14.094 29.5404 14.048 29.4204 14.048C29.2564 14.048 29.1084 14.114 28.9764 14.246C28.8484 14.374 28.7704 14.562 28.7424 14.81L28.7004 14.642C28.7644 14.378 28.8864 14.174 29.0664 14.03C29.2464 13.886 29.4604 13.814 29.7084 13.814Z" fill="white"/>
</svg>
